<svg width="31" height="31" viewBox="0 0 31 31" fill="none" xmlns="http://www.w3.org/2000/svg">
<path d="M0.5 8C0.5 6.01088 1.29018 4.10322 2.6967 2.6967C4.10322 1.29018 6.01088 0.5 8 0.5H23C24.9891 0.5 26.8968 1.29018 28.3033 2.6967C29.7098 4.10322 30.5 6.01088 30.5 8V23C30.5 24.9891 29.7098 26.8968 28.3033 28.3033C26.8968 29.7098 24.9891 30.5 23 30.5H8C6.01088 30.5 4.10322 29.7098 2.6967 28.3033C1.29018 26.8968 0.5 24.9891 0.5 23V8Z" fill="black"/>
<path d="M9.875 15.5C9.875 16.9918 10.4676 18.4226 11.5225 19.4775C12.5774 20.5324 14.0082 21.125 15.5 21.125C16.9918 21.125 18.4226 20.5324 19.4775 19.4775C20.5324 18.4226 21.125 16.9918 21.125 15.5C21.125 14.0082 20.5324 12.5774 19.4775 11.5225C18.4226 10.4676 16.9918 9.875 15.5 9.875C14.0082 9.875 12.5774 10.4676 11.5225 11.5225C10.4676 12.5774 9.875 14.0082 9.875 15.5Z" fill="black"/>
<path d="M23.9375 7.0625V7.08125Z" fill="black"/>
<path d="M23.9375 7.0625V7.08125M0.5 8C0.5 6.01088 1.29018 4.10322 2.6967 2.6967C4.10322 1.29018 6.01088 0.5 8 0.5H23C24.9891 0.5 26.8968 1.29018 28.3033 2.6967C29.7098 4.10322 30.5 6.01088 30.5 8V23C30.5 24.9891 29.7098 26.8968 28.3033 28.3033C26.8968 29.7098 24.9891 30.5 23 30.5H8C6.01088 30.5 4.10322 29.7098 2.6967 28.3033C1.29018 26.8968 0.5 24.9891 0.5 23V8ZM9.875 15.5C9.875 16.9918 10.4676 18.4226 11.5225 19.4775C12.5774 20.5324 14.0082 21.125 15.5 21.125C16.9918 21.125 18.4226 20.5324 19.4775 19.4775C20.5324 18.4226 21.125 16.9918 21.125 15.5C21.125 14.0082 20.5324 12.5774 19.4775 11.5225C18.4226 10.4676 16.9918 9.875 15.5 9.875C14.0082 9.875 12.5774 10.4676 11.5225 11.5225C10.4676 12.5774 9.875 14.0082 9.875 15.5Z" stroke="#FF5D5D" stroke-linecap="round" stroke-linejoin="round"/>
</svg>
